<svg width="44" height="14" viewBox="0 0 44 14" fill="none" xmlns="http://www.w3.org/2000/svg">
<g clip-path="url(#clip0_4_69)">
<path d="M10.6359 0.0116577V10.7995L11.8359 10.8048V5.67001H14.7354V4.31095H11.8359V1.37072H15.6103V0.0116577H10.6359ZM17.7768 2.20096C18.212 2.20096 18.5601 1.79377 18.5601 1.29669C18.5601 0.799596 18.2074 0.392407 17.7768 0.392407C17.3417 0.392407 16.9936 0.799596 16.9936 1.29669C16.9936 1.79377 17.3463 2.20096 17.7768 2.20096ZM17.1676 3.56003V10.7995H18.3677V3.56003H17.1676Z" fill="black"/>
<path fill-rule="evenodd" clip-rule="evenodd" d="M22.8245 3.34851C21.2259 3.34851 20.1129 4.90852 20.1129 6.75939C20.1129 8.61025 21.2259 10.1703 22.8245 10.1703C23.5574 10.1703 24.1574 9.84239 24.5971 9.31358V10.2707C24.5971 11.4712 23.7818 12.4706 22.7146 12.4706C22.3298 12.4706 21.9496 12.3014 21.6473 12.0581L21.0427 13.2638C21.5236 13.6234 22.0962 13.8297 22.71 13.8297C24.4139 13.8297 25.7926 12.2379 25.7926 10.2707V3.56004H24.5971V4.2052C24.1574 3.67638 23.5574 3.34851 22.8245 3.34851ZM21.3175 6.75939C21.3175 5.61185 22.0779 4.70757 22.9573 4.70757C23.8368 4.70757 24.5971 5.61185 24.5971 6.75939C24.5971 7.90692 23.8368 8.8112 22.9573 8.8112C22.0779 8.8112 21.3175 7.90692 21.3175 6.75939Z" fill="black"/>
<path d="M30.1303 4.70757C29.4203 4.70757 28.8432 5.40561 28.8432 6.22528V10.7996H27.6431V3.56004H28.8432V4.22106C29.1959 3.69753 29.7135 3.34851 30.3914 3.34851C31.2342 3.34851 31.8801 3.82974 32.2557 4.57008C32.6725 3.85618 33.3504 3.34851 34.1703 3.34851C35.5399 3.34851 36.3918 4.62296 36.3964 6.19884V10.7996H35.1963V6.21999C35.1963 5.40032 34.6192 4.70228 33.9092 4.70228C33.1992 4.70228 32.6221 5.40032 32.6221 6.21999V10.7996H31.422V6.21999C31.4174 5.40032 30.8403 4.70757 30.1303 4.70757Z" fill="black"/>
<path fill-rule="evenodd" clip-rule="evenodd" d="M42.7999 4.37971C42.264 3.73984 41.5311 3.34851 40.6837 3.34851C38.8974 3.34851 37.624 5.0989 37.624 7.18244C37.624 9.26598 38.8928 11.0164 40.6837 11.0164C41.5311 11.0164 42.264 10.6198 42.7999 9.98518V10.7996H44V3.56004H42.7999V4.37971ZM38.8287 7.18244C38.8287 5.80223 39.7447 4.70757 40.8166 4.70757C41.8838 4.70757 42.8045 5.79694 42.8045 7.18244C42.8045 8.56266 41.8884 9.65731 40.8166 9.65731C39.7447 9.65202 38.8287 8.56266 38.8287 7.18244Z" fill="black"/>
<path d="M4.0354 7.00265C4.0354 5.71762 4.93775 4.67056 6.05539 4.67056C7.16844 4.67056 8.07538 5.71233 8.07538 7.00265C8.07538 8.28768 7.17302 9.33474 6.05539 9.33474C4.94233 9.33474 4.0354 8.28768 4.0354 7.00265Z" fill="#1ABCFE"/>
<path d="M3.05176e-05 11.6615C3.05176e-05 10.3765 0.902383 9.32944 2.02002 9.32944H4.04001V11.6615C4.04001 12.9466 3.13765 13.9936 2.02002 13.9936C0.902383 13.9936 3.05176e-05 12.9518 3.05176e-05 11.6615Z" fill="#0ACF83"/>
<path d="M4.0354 0.0116664V4.67055H6.05539C7.16844 4.67055 8.07538 3.62878 8.07538 2.33847C8.07538 1.05344 7.17302 0.00637817 6.05539 0.00637817H4.0354V0.0116664Z" fill="#FF7262"/>
<path d="M3.05176e-05 2.34374C3.05176e-05 3.62877 0.902383 4.67583 2.02002 4.67583H4.04001V0.0116577H2.02002C0.902383 0.0116577 3.05176e-05 1.05343 3.05176e-05 2.34374Z" fill="#F24E1E"/>
<path d="M3.05176e-05 7.00265C3.05176e-05 8.28768 0.902383 9.33474 2.02002 9.33474H4.04001V4.67056H2.02002C0.902383 4.67056 3.05176e-05 5.71762 3.05176e-05 7.00265Z" fill="#A259FF"/>
</g>
<defs>
<clipPath id="clip0_4_69">
<rect width="44" height="14" fill="white"/>
</clipPath>
</defs>
</svg>
