<svg width="44" height="50" viewBox="0 0 44 50" fill="none" xmlns="http://www.w3.org/2000/svg">
<g clip-path="url(#clip0_4_52)">
<path d="M14.1868 38.6522C14.1868 38.6522 11.9187 39.7613 15.8009 40.1366C20.5042 40.5877 22.9079 40.5231 28.091 39.6981C28.091 39.6981 29.4537 40.4166 31.3566 41.039C19.7378 45.2264 5.06059 40.7964 14.1868 38.6522ZM12.7669 33.1877C12.7669 33.1877 10.2231 34.7712 14.1082 35.1091C19.1324 35.5449 23.1 35.5806 29.9657 34.4689C29.9657 34.4689 30.9153 35.2785 32.4085 35.7212C18.3604 39.1756 2.71349 35.9936 12.7669 33.1877Z" fill="#5382A1"/>
<path d="M24.7362 23.9183C27.5991 26.69 23.984 29.1842 23.984 29.1842C23.984 29.1842 31.2533 26.0286 27.9148 22.0769C24.7968 18.3919 22.4055 16.5607 35.3504 10.2477C35.3504 10.2477 15.0314 14.5152 24.7362 23.9183Z" fill="#E76F00"/>
<path d="M40.1032 42.6939C40.1032 42.6939 41.7816 43.8568 38.2546 44.7565C31.548 46.465 10.341 46.9809 4.44966 44.8246C2.33198 44.05 6.30339 42.9749 7.55255 42.7491C8.85533 42.5116 9.59995 42.5559 9.59995 42.5559C7.24477 41.1607 -5.62288 45.2954 3.06388 46.4793C26.7537 49.71 46.2479 45.0247 40.1032 42.6939ZM15.2773 27.526C15.2773 27.526 4.49022 29.6806 11.4575 30.4629C14.3992 30.7941 20.2635 30.7192 25.726 30.3342C30.1903 30.0178 34.6729 29.3444 34.6729 29.3444C34.6729 29.3444 33.0988 29.9113 31.96 30.5652C21.0057 32.9879 -0.156043 31.8608 5.93615 29.3827C11.0883 27.2884 15.2773 27.526 15.2773 27.526ZM34.6284 36.6217C45.7642 31.7558 40.6154 27.0798 37.0218 27.7098C36.1409 27.8639 35.7482 27.9974 35.7482 27.9974C35.7482 27.9974 36.0752 27.5668 36.6997 27.3803C43.8091 25.2785 49.2768 33.5793 34.4047 36.8669C34.4047 36.867 34.577 36.7376 34.6284 36.6217Z" fill="#5382A1"/>
<path d="M27.9149 0.0536113C27.9149 0.0536113 34.082 5.24147 22.0657 13.2185C12.43 19.6176 19.8684 23.2662 22.0617 27.4348C16.4371 23.1675 12.3093 19.4108 15.0787 15.9146C19.143 10.7821 30.403 8.29393 27.9149 0.0536113Z" fill="#E76F00"/>
<path d="M16.3716 49.8071C27.0604 50.3825 43.4742 49.4879 43.8629 45.2348C43.8629 45.2348 43.1157 46.8473 35.0292 48.1276C25.9061 49.5712 14.6542 49.4028 7.98047 48.4775C7.98064 48.4775 9.34649 49.4283 16.3716 49.8071Z" fill="#5382A1"/>
</g>
<defs>
<clipPath id="clip0_4_52">
<rect width="44" height="50" fill="white"/>
</clipPath>
</defs>
</svg>
