<svg width="44" height="28" viewBox="0 0 44 28" fill="none" xmlns="http://www.w3.org/2000/svg">
<g clip-path="url(#clip0_4_82)">
<path d="M22 0C16.1355 0 12.4704 3.11118 11.0041 9.33294C13.2035 6.22177 15.7692 5.05551 18.7012 5.83302C20.3743 6.27664 21.5699 7.56488 22.8938 8.9903C25.0497 11.3123 27.545 13.9997 32.9959 13.9997C38.8599 13.9997 42.5256 10.8885 43.9913 4.66618C41.7925 7.77736 39.2268 8.94419 36.2942 8.16669C34.6217 7.72307 33.426 6.43482 32.1022 5.0094C29.9463 2.6874 27.4504 0 22 0ZM11.0041 13.9997C5.14012 13.9997 1.47445 17.1109 0.00872803 23.3332C2.20758 20.2221 4.77328 19.0552 7.70582 19.8333C9.37833 20.2775 10.574 21.5652 11.8978 22.99C14.0538 25.312 16.5496 28 22 28C27.8645 28 31.5297 24.8888 32.9959 18.6665C30.7965 21.7776 28.2308 22.9445 25.2989 22.1664C23.6258 21.7234 22.4301 20.4345 21.1063 19.0097C18.9503 16.6877 16.455 13.9997 11.0041 13.9997Z" fill="#06B6D4"/>
</g>
<defs>
<clipPath id="clip0_4_82">
<rect width="44" height="28" fill="white"/>
</clipPath>
</defs>
</svg>
